

<svg xmlns="http://www.w3.org/2000/svg" x="0px" y="0px"
width="40" height="40"
viewBox="0 0 172 172"
style=" fill:#000000;"><g fill="none" fill-rule="nonzero" stroke="none" stroke-width="1" stroke-linecap="butt" stroke-linejoin="miter" stroke-miterlimit="10" stroke-dasharray="" stroke-dashoffset="0" font-family="none" font-weight="none" font-size="none" text-anchor="none" style="mix-blend-mode: normal"><path d="M0,172v-172h172v172z" fill="none"></path><g><path d="M86,165.55c-43.8643,0 -79.55,-35.6857 -79.55,-79.55c0,-43.8643 35.6857,-79.55 79.55,-79.55c43.8643,0 79.55,35.6857 79.55,79.55c0,43.8643 -35.6857,79.55 -79.55,79.55z" fill="#b6dcfe"></path><path d="M86,8.6c42.6775,0 77.4,34.7225 77.4,77.4c0,42.6775 -34.7225,77.4 -77.4,77.4c-42.6775,0 -77.4,-34.7225 -77.4,-77.4c0,-42.6775 34.7225,-77.4 77.4,-77.4M86,4.3c-45.15,0 -81.7,36.55 -81.7,81.7c0,45.15 36.55,81.7 81.7,81.7c45.15,0 81.7,-36.55 81.7,-81.7c0,-45.15 -36.55,-81.7 -81.7,-81.7z" fill="#3498db"></path><path d="M86,21.5c-35.6943,0 -64.5,28.8057 -64.5,64.5c0,35.6943 28.8057,64.5 64.5,64.5c35.6943,0 64.5,-28.8057 64.5,-64.5c0,-35.6943 -28.8057,-64.5 -64.5,-64.5zM86,133.3c-26.2343,0 -47.3,-21.0657 -47.3,-47.3c0,-26.2343 21.0657,-47.3 47.3,-47.3c26.2343,0 47.3,21.0657 47.3,47.3c0,26.2343 -21.0657,47.3 -47.3,47.3zM86,55.9c-16.7614,0 -30.1,13.3386 -30.1,30.1c0,16.7614 13.3386,30.1 30.1,30.1c16.7614,0 30.1,-13.3386 30.1,-30.1c0,-16.7614 -13.3386,-30.1 -30.1,-30.1zM86,98.9c-7.31,0 -12.9,-5.59 -12.9,-12.9c0,-7.31 5.59,-12.9 12.9,-12.9c7.31,0 12.9,5.59 12.9,12.9c0,7.31 -5.59,12.9 -12.9,12.9z" fill="#ffffff"></path><path d="M84.3918,87.5867l0.0215,0.0215c0.8342,0.8342 2.1844,0.8342 3.0186,0l59.039,-59.039l-3.0401,-3.0401l-59.039,59.039c-0.8342,0.8342 -0.8342,2.1844 0,3.0186z" fill="#3498db"></path><path d="M85.9226,90.386c-1.1481,0 -2.2231,-0.4472 -3.0315,-1.2556c-0.8256,-0.8213 -1.2728,-1.8963 -1.2728,-3.0444c0,-1.1481 0.4429,-2.2274 1.2556,-3.0358l60.5526,-60.5612l6.0802,6.0802l-60.5526,60.5612c-0.8084,0.8084 -1.8834,1.2556 -3.0315,1.2556z" fill="#3498db"></path><g><path d="M121.26,53.75h17.2l25.8,-25.8h-17.2z" fill="#2ecc71"></path><path d="M138.46,55.9h-17.2c-0.8686,0 -1.6555,-0.5246 -1.9866,-1.3287c-0.3354,-0.8041 -0.1505,-1.7286 0.4644,-2.3435l25.8,-25.8c0.4042,-0.3999 0.9503,-0.6278 1.5222,-0.6278h17.2c0.8686,0 1.6555,0.5246 1.9866,1.3287c0.3354,0.8041 0.1505,1.7286 -0.4644,2.3435l-25.8,25.8c-0.4042,0.3999 -0.9503,0.6278 -1.5222,0.6278zM126.4501,51.6h11.1198l21.5,-21.5h-11.1198z" fill="#3498db"></path></g><g><path d="M118.2414,50.74v-17.2l25.7183,-26.015l0.0989,17.415z" fill="#2ecc71"></path><path d="M118.2414,52.89c-0.2752,0 -0.5547,-0.0559 -0.8213,-0.1634c-0.7998,-0.3354 -1.3201,-1.118 -1.3201,-1.9866v-17.2c0,-0.5676 0.2236,-1.1137 0.6235,-1.5179l25.7183,-26.015c0.6106,-0.6149 1.5351,-0.8084 2.3306,-0.473c0.7998,0.3268 1.3287,1.1094 1.333,1.978l0.0946,17.415c0,0.5762 -0.2236,1.1309 -0.6321,1.5351l-25.8129,25.8c-0.4085,0.4085 -0.9546,0.6278 -1.5136,0.6278zM120.3871,34.4258v11.137l21.5215,-21.5086l-0.0645,-11.3391z" fill="#3498db"></path></g></g></g></svg>