

<svg xmlns="http://www.w3.org/2000/svg" x="0px" y="0px"
width="40" height="40"
viewBox="0 0 172 172"
style=" fill:#000000;"><g fill="none" fill-rule="nonzero" stroke="none" stroke-width="1" stroke-linecap="butt" stroke-linejoin="miter" stroke-miterlimit="10" stroke-dasharray="" stroke-dashoffset="0" font-family="none" font-weight="none" font-size="none" text-anchor="none" style="mix-blend-mode: normal"><path d="M0,172v-172h172v172z" fill="none"></path><g><path d="M137.6,53.75c-10.68671,0 -19.35,8.66329 -19.35,19.35c0,10.68671 8.66329,19.35 19.35,19.35c10.68671,0 19.35,-8.66329 19.35,-19.35c0,-10.68671 -8.66329,-19.35 -19.35,-19.35z" fill="#c9f6dc"></path><path d="M137.6,55.9c9.4858,0 17.2,7.7142 17.2,17.2c0,9.4858 -7.7142,17.2 -17.2,17.2c-9.4858,0 -17.2,-7.7142 -17.2,-17.2c0,-9.4858 7.7142,-17.2 17.2,-17.2M137.6,51.6c-11.8723,0 -21.5,9.6277 -21.5,21.5c0,11.8723 9.6277,21.5 21.5,21.5c11.8723,0 21.5,-9.6277 21.5,-21.5c0,-11.8723 -9.6277,-21.5 -21.5,-21.5z" fill="#3498db"></path><path d="M105.35,139.75v-2.15c0,-17.7848 14.4652,-32.25 32.25,-32.25c17.7848,0 32.25,14.4652 32.25,32.25v2.15z" fill="#98ccfd"></path><path d="M137.6,107.5c16.598,0 30.1,13.502 30.1,30.1v0h-60.2c0,-16.598 13.502,-30.1 30.1,-30.1M137.6,103.2c-18.9974,0 -34.4,15.4026 -34.4,34.4v4.3h68.8v-4.3c0,-18.9974 -15.4026,-34.4 -34.4,-34.4z" fill="#3498db"></path><path d="M34.4,53.75c-10.68671,0 -19.35,8.66329 -19.35,19.35c0,10.68671 8.66329,19.35 19.35,19.35c10.68671,0 19.35,-8.66329 19.35,-19.35c0,-10.68671 -8.66329,-19.35 -19.35,-19.35z" fill="#c9f6dc"></path><path d="M34.4,55.9c9.4858,0 17.2,7.7142 17.2,17.2c0,9.4858 -7.7142,17.2 -17.2,17.2c-9.4858,0 -17.2,-7.7142 -17.2,-17.2c0,-9.4858 7.7142,-17.2 17.2,-17.2M34.4,51.6c-11.8723,0 -21.5,9.6277 -21.5,21.5c0,11.8723 9.6277,21.5 21.5,21.5c11.8723,0 21.5,-9.6277 21.5,-21.5c0,-11.8723 -9.6277,-21.5 -21.5,-21.5z" fill="#3498db"></path><path d="M62.35,15.05c-9.4993,0 -17.2,7.7007 -17.2,17.2c0,9.4993 7.7007,17.2 17.2,17.2c9.4993,0 17.2,-7.7007 17.2,-17.2c0,-9.4993 -7.7007,-17.2 -17.2,-17.2z" fill="#c9f6dc"></path><path d="M62.35,17.2c8.299,0 15.05,6.751 15.05,15.05c0,8.299 -6.751,15.05 -15.05,15.05c-8.299,0 -15.05,-6.751 -15.05,-15.05c0,-8.299 6.751,-15.05 15.05,-15.05M62.35,12.9c-10.6855,0 -19.35,8.6645 -19.35,19.35c0,10.6855 8.6645,19.35 19.35,19.35c10.6855,0 19.35,-8.6645 19.35,-19.35c0,-10.6855 -8.6645,-19.35 -19.35,-19.35z" fill="#3498db"></path><g><path d="M109.65,15.05c-9.4993,0 -17.2,7.7007 -17.2,17.2c0,9.4993 7.7007,17.2 17.2,17.2c9.4993,0 17.2,-7.7007 17.2,-17.2c0,-9.4993 -7.7007,-17.2 -17.2,-17.2z" fill="#c9f6dc"></path><path d="M109.65,17.2c8.299,0 15.05,6.751 15.05,15.05c0,8.299 -6.751,15.05 -15.05,15.05c-8.299,0 -15.05,-6.751 -15.05,-15.05c0,-8.299 6.751,-15.05 15.05,-15.05M109.65,12.9c-10.6855,0 -19.35,8.6645 -19.35,19.35c0,10.6855 8.6645,19.35 19.35,19.35c10.6855,0 19.35,-8.6645 19.35,-19.35c0,-10.6855 -8.6645,-19.35 -19.35,-19.35z" fill="#3498db"></path></g><g><path d="M2.15,139.75v-2.15c0,-17.7848 14.4652,-32.25 32.25,-32.25c17.7848,0 32.25,14.4652 32.25,32.25v2.15z" fill="#98ccfd"></path><path d="M34.4,107.5c16.598,0 30.1,13.502 30.1,30.1v0h-60.2c0,-16.598 13.502,-30.1 30.1,-30.1M34.4,103.2c-18.9974,0 -34.4,15.4026 -34.4,34.4v4.3h68.8v-4.3c0,-18.9974 -15.4026,-34.4 -34.4,-34.4z" fill="#3498db"></path></g><g><path d="M86,75.25c-10.68671,0 -19.35,8.66329 -19.35,19.35c0,10.68671 8.66329,19.35 19.35,19.35c10.68671,0 19.35,-8.66329 19.35,-19.35c0,-10.68671 -8.66329,-19.35 -19.35,-19.35z" fill="#c9f6dc"></path><path d="M86,77.4c9.4858,0 17.2,7.7142 17.2,17.2c0,9.4858 -7.7142,17.2 -17.2,17.2c-9.4858,0 -17.2,-7.7142 -17.2,-17.2c0,-9.4858 7.7142,-17.2 17.2,-17.2M86,73.1c-11.8723,0 -21.5,9.6277 -21.5,21.5c0,11.8723 9.6277,21.5 21.5,21.5c11.8723,0 21.5,-9.6277 21.5,-21.5c0,-11.8723 -9.6277,-21.5 -21.5,-21.5z" fill="#3498db"></path></g><g><path d="M53.75,161.25v-2.15c0,-17.7848 14.4652,-32.25 32.25,-32.25c17.7848,0 32.25,14.4652 32.25,32.25v2.15z" fill="#b6dcfe"></path><path d="M86,129c16.598,0 30.1,13.502 30.1,30.1v0h-60.2c0,-16.598 13.502,-30.1 30.1,-30.1M86,124.7c-18.9974,0 -34.4,15.4026 -34.4,34.4v4.3h68.8v-4.3c0,-18.9974 -15.4026,-34.4 -34.4,-34.4z" fill="#3498db"></path></g></g></g></svg>