<svg xmlns="http://www.w3.org/2000/svg" x="0px" y="0px"
width="64" height="64"
viewBox="0 0 172 172"
style=" fill:#000000;"><g fill="none" fill-rule="nonzero" stroke="none" stroke-width="1" stroke-linecap="butt" stroke-linejoin="miter" stroke-miterlimit="10" stroke-dasharray="" stroke-dashoffset="0" font-family="none" font-weight="none" font-size="none" text-anchor="none" style="mix-blend-mode: normal"><path d="M0,172v-172h172v172z" fill="none"></path><g><path d="M91.9125,142.4375c-8.6,-15.05 -24.85938,-25.2625 -43.5375,-25.2625v0c-18.67812,0 -34.9375,10.2125 -43.5375,25.39688l0.13437,4.03125h86.80625zM48.375,53.75c-12.98732,0 -23.51562,10.5283 -23.51562,23.51563c0,12.98732 10.5283,23.51563 23.51563,23.51563c12.98732,0 23.51563,-10.5283 23.51563,-23.51562c0,-12.98732 -10.5283,-23.51562 -23.51562,-23.51562z" fill="#ffffff"></path><path d="M48.375,104.67813c-15.18438,0 -27.54687,-12.3625 -27.54687,-27.54687c0,-14.37813 11.2875,-26.47188 25.66563,-27.4125c2.28438,-0.13437 4.16563,1.47813 4.3,3.7625c0.13438,2.28438 -1.47812,4.16563 -3.7625,4.3c-10.2125,0.67188 -18.14062,9.1375 -18.14062,19.35c0,10.75 8.73437,19.48438 19.48437,19.48438c3.49375,0 6.9875,-0.94063 9.94375,-2.6875c1.88125,-1.075 4.43437,-0.5375 5.50937,1.34375c1.075,1.88125 0.5375,4.43437 -1.34375,5.50937c-4.3,2.55313 -9.1375,3.89688 -14.10938,3.89688zM4.8375,146.46875c-0.67187,0 -1.34375,-0.13438 -2.01563,-0.5375c-1.88125,-1.075 -2.55312,-3.49375 -1.47812,-5.50938c6.9875,-12.3625 18.8125,-21.63437 32.51875,-25.39688c2.15,-0.5375 4.43438,0.67188 4.97188,2.82187c0.5375,2.15 -0.67187,4.43438 -2.82188,4.97188c-11.55625,3.225 -21.63437,11.15312 -27.68125,21.63438c-0.67187,1.34375 -2.01562,2.01563 -3.49375,2.01563z" fill="#3498db"></path><g><path d="M80.0875,142.4375c8.6,-15.05 24.85937,-25.2625 43.5375,-25.2625v0c18.67812,0 34.9375,10.2125 43.5375,25.39688l-0.13437,4.03125h-86.80625zM123.625,53.75c-12.98732,0 -23.51562,10.5283 -23.51562,23.51563c0,12.98732 10.5283,23.51563 23.51563,23.51563c12.98732,0 23.51563,-10.5283 23.51563,-23.51562c0,-12.98732 -10.5283,-23.51562 -23.51562,-23.51562z" fill="#ffffff"></path><path d="M123.625,104.67813c-4.97187,0 -9.80938,-1.34375 -13.975,-3.89688c-1.88125,-1.075 -2.55313,-3.62812 -1.34375,-5.50937c1.075,-1.88125 3.62813,-2.55313 5.50937,-1.34375c2.95625,1.74687 6.45,2.6875 9.94375,2.6875c10.75,0 19.48438,-8.73437 19.48438,-19.48437c0,-10.2125 -7.92813,-18.67813 -18.14063,-19.35c-2.28437,-0.13437 -3.89688,-2.01562 -3.7625,-4.3c0.13437,-2.28438 2.01563,-3.89687 4.3,-3.7625c14.37813,0.94063 25.66563,13.03437 25.66563,27.4125c-0.13438,15.31875 -12.49688,27.54688 -27.68125,27.54688zM167.1625,146.46875c-1.34375,0 -2.82187,-0.67187 -3.49375,-2.01562c-5.9125,-10.48125 -15.99063,-18.40937 -27.68125,-21.63437c-2.15,-0.5375 -3.35937,-2.82187 -2.82187,-4.97188c0.5375,-2.15 2.82187,-3.35937 4.97188,-2.82187c13.57187,3.7625 25.39687,13.03438 32.51875,25.39687c1.075,1.88125 0.40313,4.43437 -1.47812,5.50938c-0.67188,0.40312 -1.34375,0.5375 -2.01563,0.5375z" fill="#3498db"></path></g><g><path d="M135.85313,141.9c-9.94375,-17.33438 -28.4875,-29.025 -49.85313,-29.025v0c-21.36562,0 -39.90938,11.69062 -49.85312,29.025l0.13437,4.56875h99.4375zM86,40.3125c-14.84265,0 -26.875,12.03235 -26.875,26.875c0,14.84265 12.03235,26.875 26.875,26.875c14.84265,0 26.875,-12.03235 26.875,-26.875c0,-14.84265 -12.03235,-26.875 -26.875,-26.875z" fill="#ffffff"></path><path d="M86,98.09375c-17.06562,0 -30.90625,-13.84063 -30.90625,-30.90625c0,-17.06563 13.84063,-30.90625 30.90625,-30.90625c17.06562,0 30.90625,13.84062 30.90625,30.90625c0,17.06562 -13.84063,30.90625 -30.90625,30.90625zM86,44.34375c-12.63125,0 -22.84375,10.2125 -22.84375,22.84375c0,12.63125 10.2125,22.84375 22.84375,22.84375c12.63125,0 22.84375,-10.2125 22.84375,-22.84375c0,-12.63125 -10.2125,-22.84375 -22.84375,-22.84375zM36.14688,146.46875c-0.67187,0 -1.34375,-0.13438 -2.01562,-0.5375c-1.88125,-1.075 -2.55313,-3.49375 -1.47813,-5.50938c10.88438,-19.08125 31.30938,-31.04062 53.34688,-31.04062c22.0375,0 42.4625,11.95938 53.34688,31.04062c1.075,1.88125 0.40312,4.43437 -1.47813,5.50938c-1.88125,1.075 -4.43437,0.40312 -5.50937,-1.47813c-9.40625,-16.6625 -27.14375,-27.00937 -46.35938,-27.00937c-19.08125,0 -36.81875,10.34687 -46.35937,27.00937c-0.67188,1.34375 -2.01563,2.01563 -3.49375,2.01563z" fill="#2ecc71"></path></g></g></g></svg>