<svg xmlns="http://www.w3.org/2000/svg" x="0px" y="0px"
width="50" height="50"
viewBox="0 0 172 172"
style=" fill:#000000;"><g fill="none" fill-rule="nonzero" stroke="none" stroke-width="1" stroke-linecap="butt" stroke-linejoin="miter" stroke-miterlimit="10" stroke-dasharray="" stroke-dashoffset="0" font-family="none" font-weight="none" font-size="none" text-anchor="none" style="mix-blend-mode: normal"><path d="M0,172v-172h172v172z" fill="none"></path><g fill="#3498db"><path d="M110.08,17.2c-11.35469,0 -20.64,9.28531 -20.64,20.64c-13.26281,0 -24.08,10.81719 -24.08,24.08c0,13.26281 10.81719,24.08 24.08,24.08c13.26281,0 24.08,-10.81719 24.08,-24.08c0,-1.23625 -0.13437,-2.45906 -0.3225,-3.655c9.91688,-1.49156 17.5225,-10.105 17.5225,-20.425c0,-11.35469 -9.28531,-20.64 -20.64,-20.64zM110.08,24.08c7.6325,0 13.76,6.1275 13.76,13.76c0,7.31 -5.61687,13.15531 -12.7925,13.6525c-2.9025,-5.97969 -8.18344,-10.60219 -14.62,-12.5775c-0.02687,-0.36281 -0.1075,-0.71219 -0.1075,-1.075c0,-7.6325 6.1275,-13.76 13.76,-13.76zM108.575,30.1l-5.16,5.16h4.085v10.32h5.16v-15.48zM89.44,44.72c9.54063,0 17.2,7.65938 17.2,17.2c0,9.54063 -7.65937,17.2 -17.2,17.2c-9.54062,0 -17.2,-7.65937 -17.2,-17.2c0,-9.54062 7.65938,-17.2 17.2,-17.2zM87.72,52.5675l-6.235,6.235h4.8375v12.47h6.235v-18.705zM46.3325,86c-9.75562,0 -14.25719,2.365 -19.135,4.3c-9.31219,3.69531 -25.2625,11.395 -25.2625,11.395c-1.26312,0.43 -2.15,1.55875 -2.29781,2.87563c-0.14781,1.33031 0.48375,2.62031 1.62594,3.31906c1.12875,0.68531 2.56656,0.65844 3.68187,-0.06719c0,0 16.07125,-7.71312 24.8325,-11.18c5.36156,-2.12312 7.79375,-3.7625 16.555,-3.7625c19.32313,0 18.74531,8.69406 26.66,13.4375c2.84875,1.70656 7.32344,3.02344 12.3625,4.3c0.43,0.24188 0.90031,0.38969 1.3975,0.43c0.04031,0.01344 0.06719,-0.01344 0.1075,0c5.68406,1.38406 11.7175,2.4725 16.34,2.4725c2.01563,0 3.74906,0.22844 5.16,0.5375c0.06719,0 0.14781,0 0.215,0c1.29,0.30906 2.29781,0.73906 3.01,1.1825c1.505,0.95406 1.935,1.73344 1.935,3.44c0,2.00219 -0.43,2.64719 -1.935,3.5475c-1.505,0.90031 -4.42094,1.6125 -8.385,1.6125h-19.995c-8.42531,0 -20.3175,-3.3325 -20.3175,-3.3325c-1.84094,-0.5375 -3.7625,0.52406 -4.3,2.365c-0.5375,1.84094 0.52406,3.7625 2.365,4.3c0,0 12.13406,3.5475 22.2525,3.5475h19.995c4.64938,0 8.6,-0.67187 11.825,-2.58c0.92719,-0.55094 1.74688,-1.23625 2.4725,-2.0425c0.30906,-0.1075 0.59125,-0.24187 0.86,-0.43l30.96,-20.855c5.36156,-3.18469 9.08375,-4.01781 11.2875,-3.9775c2.20375,0.04031 2.95625,0.69875 3.655,1.6125c1.02125,1.33031 1.08844,2.08281 0.43,3.655c-0.65844,1.57219 -2.48594,3.77594 -5.805,6.1275c-4.12531,2.92938 -49.58437,33.13688 -54.9325,36.2275c-3.95062,2.28438 -7.10844,4.77031 -10.75,5.805c-3.64156,1.03469 -7.99531,0.95406 -15.05,-2.4725c-4.70312,-2.28437 -24.6175,-12.685 -31.0675,-16.0175c-3.56094,-1.84094 -6.49031,-2.86219 -9.5675,-2.6875c-3.07719,0.17469 -5.76469,1.58563 -8.4925,3.3325l-9.245,6.02c-1.59906,1.03469 -2.05594,3.18469 -1.02125,4.78375c1.03469,1.59906 3.18469,2.05594 4.78375,1.02125l9.245,-6.02c2.40531,-1.53187 3.7625,-2.19031 5.0525,-2.2575c1.29,-0.06719 3.05031,0.34938 6.1275,1.935c6.39625,3.30563 26.00156,13.61219 31.175,16.125c8.12969,3.95063 14.64688,4.28656 19.8875,2.795c5.24063,-1.49156 8.98969,-4.48812 12.3625,-6.45c7.16219,-4.15219 50.29656,-32.88156 55.47,-36.55c3.95063,-2.795 6.73219,-5.72437 8.17,-9.1375c1.43781,-3.41312 0.99438,-7.44437 -1.29,-10.4275c-1.80062,-2.35156 -4.95844,-4.21937 -9.03,-4.3c-2.86219,-0.05375 -6.32906,0.99438 -10.105,2.6875c-0.14781,-0.69875 0.20156,-1.47812 -0.1075,-2.15c-1.16906,-2.53969 -3.84312,-4.25969 -6.7725,-4.8375c-3.82969,-0.7525 -8.17,0.40313 -12.47,2.365c-0.30906,-0.94062 -0.55094,-1.94844 -1.1825,-2.6875c-1.84094,-2.20375 -4.515,-2.92937 -6.9875,-3.1175c-4.93156,-0.37625 -10.05125,1.22281 -13.76,3.44c-5.14656,3.06375 -20.5325,12.76563 -22.79,14.19c-4.59562,-1.23625 -8.77469,-2.70094 -9.9975,-3.44c-3.14437,-1.89469 -8.51937,-14.405 -30.2075,-14.405zM122.55,93.095c1.37063,0.1075 2.06938,0.52406 2.2575,0.7525c0.14781,0.17469 0.40313,0.44344 0.3225,1.3975c0,0.02688 0,0.08063 0,0.1075l-16.985,11.61c-1.55875,-0.24187 -3.17125,-0.3225 -4.945,-0.3225c-1.81406,0 -4.28656,-0.3225 -6.9875,-0.7525c5.97969,-3.7625 13.38375,-8.37156 16.6625,-10.32c2.31125,-1.37062 6.92031,-2.6875 9.675,-2.4725zM140.18,96.32c0.91375,-0.08062 1.66625,-0.12094 2.2575,0c1.42438,0.28219 1.59906,0.57781 1.8275,1.075c0.16125,0.36281 0.24188,1.29 0.1075,2.4725l-24.295,16.34c-0.59125,-2.48594 -2.02906,-4.68969 -4.085,-6.235l14.19,-9.7825c0.18813,-0.12094 0.37625,-0.26875 0.5375,-0.43c0.18813,-0.12094 0.37625,-0.26875 0.5375,-0.43c3.07719,-1.86781 6.47688,-2.78156 8.9225,-3.01z"></path></g></g></svg>