<svg xmlns="http://www.w3.org/2000/svg" x="0px" y="0px"
width="50" height="50"
viewBox="0 0 172 172"
style=" fill:#000000;"><g fill="none" fill-rule="nonzero" stroke="none" stroke-width="1" stroke-linecap="butt" stroke-linejoin="miter" stroke-miterlimit="10" stroke-dasharray="" stroke-dashoffset="0" font-family="none" font-weight="none" font-size="none" text-anchor="none" style="mix-blend-mode: normal"><path d="M0,172v-172h172v172z" fill="none"></path><g fill="#3498db"><path d="M109.5425,0c-0.86,0.14781 -1.62594,0.60469 -2.15,1.29l-10.32,12.9c-1.63937,2.05594 -4.05812,3.38625 -6.665,3.7625l-0.9675,0.215c-12.17437,1.73344 -22.52125,9.86313 -27.09,21.285l-2.15,5.2675h-4.4075c-8.04906,0 -15.64125,4.05813 -20.1025,10.75l-14.0825,21.1775l-20.1025,13.33c-1.1825,0.80625 -1.73344,2.27094 -1.3975,3.655l13.76,61.92c0.34938,1.55875 1.73344,2.67406 3.3325,2.6875h17.7375c1.53188,5.9125 6.85313,10.32 13.2225,10.32c4.12531,0 7.79375,-1.92156 10.32,-4.8375c2.52625,2.91594 6.19469,4.8375 10.32,4.8375c4.12531,0 7.79375,-1.92156 10.32,-4.8375c2.52625,2.91594 6.19469,4.8375 10.32,4.8375c4.12531,0 7.79375,-1.92156 10.32,-4.8375c2.52625,2.91594 6.19469,4.8375 10.32,4.8375c6.36938,0 11.69063,-4.4075 13.2225,-10.32h16.0175c7.99531,0 14.79469,-6.22156 15.48,-14.19c0.40313,-4.64937 -1.38406,-8.94937 -4.4075,-12.04c4.20594,-2.43219 7.22938,-6.70531 7.74,-11.825c0.47031,-4.70312 -1.27656,-9.11062 -4.3,-12.255c4.16563,-2.41875 7.2025,-6.65156 7.74,-11.7175c0.51063,-4.75687 -1.22281,-9.19125 -4.3,-12.3625c4.20594,-2.40531 7.2025,-6.61125 7.74,-11.7175c0.68531,-6.58437 -2.98312,-12.56406 -8.4925,-15.3725l14.9425,-23.9725c0.52406,-0.83312 0.67188,-1.84094 0.41656,-2.78156c-0.26875,-0.95406 -0.92719,-1.73344 -1.81406,-2.16344l-58.48,-27.52c-0.63156,-0.30906 -1.34375,-0.43 -2.0425,-0.3225zM111.0475,7.74l52.5675,24.725l-14.19,22.575h-61.275c-1.41094,-0.01344 -2.70094,0.83313 -3.225,2.15l-11.7175,29.3475c-2.13656,5.33469 -8.10281,7.83406 -13.4375,5.6975c-5.33469,-2.13656 -7.83406,-8.10281 -5.6975,-13.4375l14.7275,-36.8725c3.655,-9.1375 11.86531,-15.5875 21.6075,-16.985l0.9675,-0.1075c4.32688,-0.61812 8.34469,-2.92937 11.0725,-6.3425zM55.7925,51.6h1.72l-9.89,24.725c-3.52062,8.78813 0.79281,18.83938 9.5675,22.36c8.78813,3.52063 18.83938,-0.90031 22.36,-9.675l10.8575,-27.09h59.2325c5.16,0 9.1375,4.32688 8.6,9.46c-0.45687,4.4075 -4.16562,7.74 -8.6,7.74h-5.16c-0.1075,0 -0.215,0 -0.3225,0c-0.215,0.01344 -0.43,0.05375 -0.645,0.1075c-0.1075,0.02688 -0.215,0.06719 -0.3225,0.1075c-0.43,0.13438 -0.83312,0.34938 -1.1825,0.645c0,0.04031 0,0.06719 0,0.1075c-0.16125,0.13438 -0.29562,0.26875 -0.43,0.43c0,0.04031 0,0.06719 0,0.1075c-0.08062,0.06719 -0.14781,0.13438 -0.215,0.215c0,0.04031 0,0.06719 0,0.1075c-0.44344,0.77938 -0.55094,1.70656 -0.3225,2.58c0.04031,0.04031 0.06719,0.06719 0.1075,0.1075c0,0.06719 0,0.14781 0,0.215c0.04031,0.04031 0.06719,0.06719 0.1075,0.1075c0.06719,0.14781 0.13438,0.29563 0.215,0.43c0.04031,0.04031 0.06719,0.06719 0.1075,0.1075c0.02688,0.06719 0.06719,0.14781 0.1075,0.215c0.04031,0.04031 0.06719,0.06719 0.1075,0.1075c0.24188,0.29563 0.5375,0.55094 0.86,0.7525c0.06719,0.04031 0.14781,0.08063 0.215,0.1075c0.04031,0.04031 0.06719,0.06719 0.1075,0.1075c0.06719,0 0.14781,0 0.215,0c0.04031,0.04031 0.06719,0.06719 0.1075,0.1075c0.06719,0 0.14781,0 0.215,0c0.04031,0 0.06719,0 0.1075,0c0.215,0.05375 0.43,0.09406 0.645,0.1075c0.04031,0 0.06719,0 0.1075,0c0.04031,0 0.06719,0 0.1075,0h1.72c5.16,0 9.03,4.32688 8.4925,9.46c-0.47031,4.4075 -4.07156,7.74 -8.4925,7.74h-5.16c-0.1075,0 -0.215,0 -0.3225,0c-0.215,0.01344 -0.43,0.05375 -0.645,0.1075c-0.1075,0.02688 -0.215,0.06719 -0.3225,0.1075c-0.43,0.13438 -0.83312,0.34938 -1.1825,0.645c0,0.04031 0,0.06719 0,0.1075c-0.16125,0.13438 -0.29562,0.26875 -0.43,0.43c0,0.04031 0,0.06719 0,0.1075c-0.08062,0.06719 -0.14781,0.13438 -0.215,0.215c0,0.04031 0,0.06719 0,0.1075c-0.44344,0.77938 -0.55094,1.70656 -0.3225,2.58c0.04031,0.04031 0.06719,0.06719 0.1075,0.1075c0,0.06719 0,0.14781 0,0.215c0.04031,0.04031 0.06719,0.06719 0.1075,0.1075c0.06719,0.14781 0.13438,0.29563 0.215,0.43c0.04031,0.04031 0.06719,0.06719 0.1075,0.1075c0.02688,0.06719 0.06719,0.14781 0.1075,0.215c0.04031,0.04031 0.06719,0.06719 0.1075,0.1075c0.24188,0.29563 0.5375,0.55094 0.86,0.7525c0.06719,0.04031 0.14781,0.08063 0.215,0.1075c0.04031,0.04031 0.06719,0.06719 0.1075,0.1075c0.06719,0 0.14781,0 0.215,0c0.04031,0.04031 0.06719,0.06719 0.1075,0.1075c0.06719,0 0.14781,0 0.215,0c0.04031,0 0.06719,0 0.1075,0c0.215,0.05375 0.43,0.09406 0.645,0.1075c0.04031,0 0.06719,0 0.1075,0c0.04031,0 0.06719,0 0.1075,0h1.72c5.14656,0 9.00313,4.34031 8.4925,9.46c-0.44344,4.42094 -4.04469,7.74 -8.4925,7.74h-6.1275c-0.1075,0 -0.215,0 -0.3225,0c-1.89469,0.09406 -3.37281,1.70656 -3.27875,3.60125c0.09406,1.89469 1.70656,3.37281 3.60125,3.27875h2.6875c5.09281,0 9.04344,4.27313 8.6,9.3525c-0.38969,4.47469 -4.11187,7.8475 -8.6,7.8475h-15.48v-3.44c0,-7.56531 -6.19469,-13.76 -13.76,-13.76c-4.12531,0 -7.79375,1.92156 -10.32,4.8375c-2.52625,-2.91594 -6.19469,-4.8375 -10.32,-4.8375c-4.12531,0 -7.79375,1.92156 -10.32,4.8375c-2.52625,-2.91594 -6.19469,-4.8375 -10.32,-4.8375c-4.12531,0 -7.79375,1.92156 -10.32,4.8375c-2.52625,-2.91594 -6.19469,-4.8375 -10.32,-4.8375c-7.56531,0 -13.76,6.19469 -13.76,13.76v3.44h-14.5125l-12.5775,-56.8675l18.705,-12.47c0.38969,-0.25531 0.71219,-0.57781 0.9675,-0.9675l14.5125,-21.8225c3.18469,-4.78375 8.54625,-7.6325 14.2975,-7.6325zM48.16,141.04c3.84313,0 6.88,3.03688 6.88,6.88v6.88c0,3.84313 -3.03687,6.88 -6.88,6.88c-3.61469,0 -6.5575,-2.71437 -6.88,-6.235c0.09406,-0.45687 0.09406,-0.94062 0,-1.3975v-6.1275c0,-3.84312 3.03688,-6.88 6.88,-6.88zM68.8,141.04c3.84313,0 6.88,3.03688 6.88,6.88v6.88c0,3.84313 -3.03687,6.88 -6.88,6.88c-3.84312,0 -6.88,-3.03687 -6.88,-6.88v-6.88c0,-3.84312 3.03688,-6.88 6.88,-6.88zM89.44,141.04c3.84313,0 6.88,3.03688 6.88,6.88v6.88c0,3.84313 -3.03687,6.88 -6.88,6.88c-3.84312,0 -6.88,-3.03687 -6.88,-6.88v-6.88c0,-3.84312 3.03688,-6.88 6.88,-6.88zM110.08,141.04c3.84313,0 6.88,3.03688 6.88,6.88v6.235c0,0.1075 0,0.215 0,0.3225v0.3225c-0.02687,0.25531 -0.02687,0.49719 0,0.7525c-0.37625,3.48031 -3.29219,6.1275 -6.88,6.1275c-3.84312,0 -6.88,-3.03687 -6.88,-6.88v-6.88c0,-3.84312 3.03688,-6.88 6.88,-6.88z"></path></g></g></svg>