<svg xmlns="http://www.w3.org/2000/svg" x="0px" y="0px"
width="50" height="50"
viewBox="0 0 172 172"
style=" fill:#000000;"><g fill="none" fill-rule="nonzero" stroke="none" stroke-width="1" stroke-linecap="butt" stroke-linejoin="miter" stroke-miterlimit="10" stroke-dasharray="" stroke-dashoffset="0" font-family="none" font-weight="none" font-size="none" text-anchor="none" style="mix-blend-mode: normal"><path d="M0,172v-172h172v172z" fill="none"></path><g fill="#3498db"><path d="M58.48,6.88c-11.35469,0 -20.64,9.28531 -20.64,20.64c0,6.82625 3.35938,12.9 8.4925,16.6625c-2.75469,1.38406 -5.2675,3.17125 -7.4175,5.375c-2.49937,-0.88687 -5.16,-1.3975 -7.955,-1.3975c-13.26281,0 -24.08,10.81719 -24.08,24.08c0,8.42531 4.36719,15.91 10.965,20.21c-10.50812,4.97188 -17.845,15.61438 -17.845,27.95v15.48c-0.01344,1.10188 0.51063,2.13656 1.3975,2.795c0,0 2.43219,1.72 7.095,3.1175c4.66281,1.3975 11.86531,2.6875 22.4675,2.6875c10.60219,0 17.80469,-1.29 22.4675,-2.6875c0.60469,-0.17469 1.08844,-0.34937 1.6125,-0.5375v15.265c-0.01344,1.10188 0.51063,2.13656 1.3975,2.795c0,0 2.43219,1.72 7.095,3.1175c4.66281,1.3975 11.86531,2.6875 22.4675,2.6875c10.60219,0 17.80469,-1.29 22.4675,-2.6875c4.66281,-1.3975 7.095,-3.1175 7.095,-3.1175c0.88688,-0.65844 1.41094,-1.69312 1.3975,-2.795v-15.265c0.52406,0.18813 1.00781,0.36281 1.6125,0.5375c4.66281,1.3975 11.86531,2.6875 22.4675,2.6875c10.60219,0 17.80469,-1.29 22.4675,-2.6875c4.66281,-1.3975 7.095,-3.1175 7.095,-3.1175c0.88688,-0.65844 1.41094,-1.69312 1.3975,-2.795v-15.48c0,-12.33562 -7.33687,-22.97812 -17.845,-27.95c6.59781,-4.3 10.965,-11.78469 10.965,-20.21c0,-13.26281 -10.81719,-24.08 -24.08,-24.08c-2.99656,0 -5.84531,0.60469 -8.4925,1.6125c-2.16344,-2.27094 -4.71656,-4.16562 -7.525,-5.59c5.13313,-3.7625 8.4925,-9.83625 8.4925,-16.6625c0,-11.35469 -9.28531,-20.64 -20.64,-20.64c-11.35469,0 -20.64,9.28531 -20.64,20.64c0,6.82625 3.35938,12.9 8.4925,16.6625c-7.90125,3.89688 -13.67937,11.395 -15.05,20.425c-1.37062,-9.04344 -7.13531,-16.54156 -15.05,-20.425c5.13313,-3.7625 8.4925,-9.83625 8.4925,-16.6625c0,-11.35469 -9.28531,-20.64 -20.64,-20.64zM58.48,13.76c7.64594,0 13.76,6.11406 13.76,13.76c0,7.64594 -6.11406,13.76 -13.76,13.76c-7.64594,0 -13.76,-6.11406 -13.76,-13.76c0,-7.64594 6.11406,-13.76 13.76,-13.76zM112.875,13.76c7.64594,0 13.76,6.11406 13.76,13.76c0,7.64594 -6.11406,13.76 -13.76,13.76c-7.64594,0 -13.76,-6.11406 -13.76,-13.76c0,-7.64594 6.11406,-13.76 13.76,-13.76zM58.48,48.16c11.59656,0 20.64,9.04344 20.64,20.64v1.075c-9.89,2.99656 -17.2,12.16094 -17.2,23.005c0,8.42531 4.36719,15.91 10.965,20.21c-4.31344,2.0425 -8.00875,5.03906 -10.965,8.7075v-1.3975c0,-12.33562 -7.33687,-22.97812 -17.845,-27.95c6.59781,-4.3 10.965,-11.78469 10.965,-20.21c0,-7.8475 -3.82969,-14.835 -9.675,-19.2425c3.57438,-3.05031 8.00875,-4.8375 13.115,-4.8375zM112.875,48.16c5.25406,0 9.82281,1.84094 13.4375,5.0525c-5.67062,4.4075 -9.3525,11.32781 -9.3525,19.0275c0,8.42531 4.36719,15.91 10.965,20.21c-10.50812,4.97188 -17.845,15.61438 -17.845,27.95v1.3975c-2.95625,-3.66844 -6.65156,-6.665 -10.965,-8.7075c6.59781,-4.3 10.965,-11.78469 10.965,-20.21c0,-11.08594 -7.60562,-20.45187 -17.845,-23.22v-0.86c0,-11.59656 9.04344,-20.64 20.64,-20.64zM30.96,55.04c2.67406,0 5.16,0.645 7.4175,1.72c5.77813,2.76813 9.7825,8.61344 9.7825,15.48c0,9.54063 -7.65937,17.2 -17.2,17.2c-9.54062,0 -17.2,-7.65937 -17.2,-17.2c0,-9.54062 7.65938,-17.2 17.2,-17.2zM141.04,55.04c9.54063,0 17.2,7.65938 17.2,17.2c0,9.54063 -7.65937,17.2 -17.2,17.2c-9.54062,0 -17.2,-7.65937 -17.2,-17.2c0,-6.35594 3.39969,-11.85187 8.4925,-14.835c0.02688,-0.01344 0.08063,0.01344 0.1075,0c0.51063,-0.1075 0.98094,-0.3225 1.3975,-0.645c0.12094,-0.05375 0.20156,-0.16125 0.3225,-0.215c0.06719,-0.02687 0.14781,-0.06719 0.215,-0.1075c2.05594,-0.87344 4.28656,-1.3975 6.665,-1.3975zM86,75.68c9.54063,0 17.2,7.65938 17.2,17.2c0,9.54063 -7.65937,17.2 -17.2,17.2c-9.54062,0 -17.2,-7.65937 -17.2,-17.2c0,-9.54062 7.65938,-17.2 17.2,-17.2zM30.96,96.32c13.26281,0 24.08,10.81719 24.08,24.08v13.2225c-0.51062,0.30906 -0.71219,0.65844 -3.5475,1.505c-3.93719,1.1825 -10.49469,2.4725 -20.5325,2.4725c-10.03781,0 -16.59531,-1.29 -20.5325,-2.4725c-2.83531,-0.84656 -3.03687,-1.19594 -3.5475,-1.505v-13.2225c0,-13.26281 10.81719,-24.08 24.08,-24.08zM141.04,96.32c13.26281,0 24.08,10.81719 24.08,24.08v13.2225c-0.51062,0.30906 -0.71219,0.65844 -3.5475,1.505c-3.93719,1.1825 -10.49469,2.4725 -20.5325,2.4725c-10.03781,0 -16.59531,-1.29 -20.5325,-2.4725c-2.83531,-0.84656 -3.03687,-1.19594 -3.5475,-1.505v-13.2225c0,-13.26281 10.81719,-24.08 24.08,-24.08zM86,116.96c13.26281,0 24.08,10.81719 24.08,24.08v13.2225c-0.51062,0.30906 -0.71219,0.65844 -3.5475,1.505c-3.93719,1.1825 -10.49469,2.4725 -20.5325,2.4725c-10.03781,0 -16.59531,-1.29 -20.5325,-2.4725c-2.83531,-0.84656 -3.03687,-1.19594 -3.5475,-1.505v-13.2225c0,-13.26281 10.81719,-24.08 24.08,-24.08z"></path></g></g></svg>