<?xml version="1.0" encoding="utf-8"?>
<!-- Generator: Adobe Illustrator 23.0.2, SVG Export Plug-In . SVG Version: 6.00 Build 0)  -->
<svg version="1.1" id="Layer_1" xmlns="http://www.w3.org/2000/svg" xmlns:xlink="http://www.w3.org/1999/xlink" x="0px" y="0px"
	 viewBox="0 0 130.5 83.9" style="enable-background:new 0 0 130.5 83.9;" xml:space="preserve">
<style type="text/css">
	.st0{fill:#FFFFFF;}
	.st1{fill:#E52B43;}
	.st2{fill:#27AAE1;}
	.st3{fill:#39404D;}
	.st4{fill:none;}
	.st5{fill:#2DB561;}
	.st6{fill:#A93143;}
	.st7{fill:#3495BB;}
	.st8{fill:#1B75BC;}
	.st9{fill:none;stroke:#FFFFFF;stroke-width:5;stroke-miterlimit:10;}
	.st10{fill:#9359A3;}
	.st11{fill:#919E4A;}
	.st12{fill:#27AAE1;stroke:#00AEEF;stroke-miterlimit:10;}
	.st13{fill:#414042;}
	.st14{fill:#FEFEFE;}
	.st15{fill:#F19821;}
	.st16{fill:#636363;}
	.st17{fill:#2F78BC;}
	.st18{fill:#FBB040;}
	.st19{fill:none;stroke:#FBB040;stroke-width:3;stroke-miterlimit:10;}
	.st20{fill:url(#SVGID_1_);}
	.st21{fill:none;stroke:#FBB040;stroke-width:2;stroke-miterlimit:10;}
	.st22{fill:url(#SVGID_2_);}
	.st23{fill:none;stroke:url(#SVGID_3_);stroke-width:2;stroke-miterlimit:10;}
	.st24{fill:url(#SVGID_4_);}
	.st25{fill:url(#SVGID_5_);}
	.st26{fill:url(#SVGID_6_);}
	.st27{fill:url(#SVGID_7_);}
	.st28{fill:url(#SVGID_8_);}
	.st29{fill:url(#SVGID_9_);}
	.st30{fill:url(#SVGID_10_);}
	.st31{fill:url(#SVGID_11_);}
	.st32{fill:url(#SVGID_12_);}
	.st33{fill:url(#SVGID_13_);}
	.st34{fill:url(#SVGID_14_);}
	.st35{fill:url(#SVGID_15_);}
	.st36{fill:url(#SVGID_16_);}
	.st37{fill:url(#SVGID_17_);}
	.st38{fill:url(#SVGID_18_);}
	.st39{fill:url(#SVGID_19_);}
	.st40{fill:url(#SVGID_20_);}
	.st41{fill:url(#SVGID_21_);}
	.st42{fill:url(#SVGID_22_);}
	.st43{fill:url(#SVGID_23_);}
	.st44{fill:url(#SVGID_24_);}
	.st45{fill:url(#SVGID_25_);}
	.st46{fill:url(#SVGID_26_);}
	.st47{fill:url(#SVGID_27_);}
	.st48{fill:url(#SVGID_28_);}
	.st49{fill:url(#SVGID_29_);}
	.st50{fill:url(#SVGID_30_);}
	.st51{fill:url(#SVGID_31_);}
	.st52{fill:url(#SVGID_32_);}
	.st53{fill:url(#SVGID_33_);}
	.st54{fill:url(#SVGID_34_);}
	.st55{fill:url(#SVGID_35_);}
	.st56{fill:url(#SVGID_36_);}
	.st57{fill:url(#SVGID_37_);}
	.st58{fill:url(#SVGID_38_);}
	.st59{fill:none;stroke:#1B75BC;stroke-width:2;stroke-miterlimit:10;}
	.st60{fill:url(#SVGID_39_);}
	.st61{fill:url(#SVGID_40_);}
	.st62{fill:url(#SVGID_41_);}
	.st63{fill:url(#SVGID_42_);}
	.st64{fill:url(#SVGID_43_);}
	.st65{fill:url(#SVGID_44_);}
	.st66{fill:none;stroke:#FFFFFF;stroke-width:10;stroke-miterlimit:10;}
	.st67{fill:#1A6CB4;}
	.st68{fill:#1B6DB4;}
</style>
<g>
	<path class="st7" d="M92.9,49.2c3,0.4,6.2,0.6,9.3,0.3c3.1-0.3,6.4-1,9.4-3c3.1-2,6.1-4.5,9.2-7c3.1-2.6,6.5-4.4,9.7-5.6
		c-3.2,1.9-6.3,4.1-9.3,6.9c-2.9,2.7-6,5.5-9.3,7.6c-3.4,2.1-6.9,2.8-10,2.8C98.7,51.1,95.7,50.4,92.9,49.2z"/>
	<path class="st7" d="M45.2,55.8c3,0.4,6.2,0.6,9.3,0.3c3.1-0.3,6.4-1,9.4-3c3.1-2,6.1-4.5,9.2-7c3.1-2.6,6.5-4.4,9.7-5.6
		c-3.2,1.9-6.3,4.1-9.3,6.9c-2.9,2.7-6,5.5-9.3,7.6c-3.4,2.1-6.9,2.8-10,2.8C51,57.7,47.9,57,45.2,55.8z"/>
	<path class="st7" d="M55.8,26.1c-1.8,0-3.5,0-5.3,0.2c-1.8,0.2-3.5,0.7-5.1,1.7c-1.7,1.1-3.4,2.5-5.1,3.8c-1.8,1.4-3.7,2.4-5.6,2.9
		c1.8-1.3,3.5-2.6,5.1-4.1c1.6-1.6,3.4-3.2,5.3-4.4c2-1.2,4-1.6,5.8-1.5C52.6,24.8,54.3,25.2,55.8,26.1z"/>
	<path class="st7" d="M90.5,34.5c-12.2,11-23.4,30.2-38.1,20.8C65.8,53.1,77.7,40.1,90.5,34.5z"/>
	<path class="st7" d="M80,55.3C80,55.3,80,55.3,80,55.3c-0.1,0-0.3,0-0.4,0c0,0,0,0,0,0c-1.9-0.1-3.8-0.3-5.8-0.4c0,0-0.1,0-0.1,0
		c-2.1-0.1-4.2-0.3-5.7-0.4c0,0,0,0,0,0c-0.8,0-1.5-0.1-2.3-0.1c-17.1-0.8-35.1,3.9-35.1,3.9C21,62.1,12.2,68.5,4.3,78.1
		C2.8,80,1.4,82,0,83.9c2.8-3.4,5.7-6.5,8.9-9.2c6.5-5.4,13.4-8.6,20.3-10.6c4.9-1.4,9.7-2.4,14.4-3c0,0,0,0,0,0c0,0,0,0,0,0
		c0.5-0.1,1-0.1,1.6-0.2c0,0,0,0,0,0c0-0.1,0-0.1,0-0.2c0,0.1,0,0.1,0,0.2c2-0.2,4-0.4,6-0.5c0,0,0,0,0,0c0,0,0,0,0,0
		c0.6,0,1.1-0.1,1.7-0.1c0,0,0,0,0,0c0,0,0,0,0,0c1.4-0.1,2.8-0.1,4.2-0.2c1.1,0,2.2,0,3.3-0.1c0,0,0,0,0,0c0,0,0,0,0,0
		c5.5-0.1,11-0.2,16.5-0.3c0,0,0,0,0,0l0,0c6.7-0.1,13.3-0.2,20-0.4c5.3-0.1,10.7-1.1,16.2-2.9c4.8-1.6,9.5-3.9,13.8-8.4
		c0.7-0.8,1.4-1.6,2.1-2.4C117.9,58.3,103.4,57,80,55.3z"/>
	<path class="st7" d="M128.2,31.9c-4.2-0.7-9-2.3-12.3-3.5c0,0-0.1-0.1-0.1-0.1c-8.1-2.9-16.1-5.7-23-11.4
		C76.9,3.8,58.5,1,36.4,15.7c-8.3,7.1-15.1,15.6-19.6,28c0,0,0,0,0,0s-0.1,0.3-0.3,0.7c-0.5,1.5-1,2.9-1.4,4.5c0,0,0-0.1,0.1-0.1
		c-1.5,4.9-3.3,12.3-3,16.8c0,0,2-14.9,10-27.9c6.9-10.2,14.1-18.3,23.4-22.5c14.4-6.5,26.9-4.9,37.6,2.9
		c8.6,6.3,17.8,11.1,28.5,12.3c0.1,0,0.3,0.1,0.5,0.1C115.7,31,128.2,31.9,128.2,31.9z"/>
</g>
</svg>
