<svg xmlns="http://www.w3.org/2000/svg" x="0px" y="0px"
width="20" height="20"
viewBox="0 0 172 172"
style=" fill:#000000;"><g fill="none" fill-rule="nonzero" stroke="none" stroke-width="1" stroke-linecap="butt" stroke-linejoin="miter" stroke-miterlimit="10" stroke-dasharray="" stroke-dashoffset="0" font-family="none" font-weight="none" font-size="none" text-anchor="none" style="mix-blend-mode: normal"><path d="M0,172v-172h172v172z" fill="none"></path><g fill="#34495e"><path d="M86,14.33333c-27.70633,0 -50.16667,22.46033 -50.16667,50.16667c0,35.83333 50.16667,93.16667 50.16667,93.16667c0,0 50.16667,-57.33333 50.16667,-93.16667c0,-27.70633 -22.46033,-50.16667 -50.16667,-50.16667zM86,82.41667c-9.89717,0 -17.91667,-8.0195 -17.91667,-17.91667c0,-9.89717 8.0195,-17.91667 17.91667,-17.91667c9.89717,0 17.91667,8.0195 17.91667,17.91667c0,9.89717 -8.0195,17.91667 -17.91667,17.91667z"></path></g></g></svg>